<svg width="200" height="200" viewBox="0 0 200 200" fill="none" xmlns="http://www.w3.org/2000/svg">
<g clip-path="url(#clip0)">
<path d="M29.0132 147.368C29.1762 146.57 29.63 145.86 30.2866 145.377C30.9432 144.894 31.7557 144.672 32.5668 144.753C33.3778 144.835 34.1296 145.216 34.6763 145.82C35.223 146.425 35.5256 147.211 35.5256 148.026C35.5256 148.841 35.223 149.628 34.6763 150.232C34.1296 150.837 33.3778 151.217 32.5668 151.299C31.7557 151.381 30.9432 151.159 30.2866 150.676C29.63 150.193 29.1762 149.483 29.0132 148.684H0V147.368H29.0132ZM134.276 178.947C134.439 178.149 134.893 177.439 135.55 176.956C136.206 176.473 137.019 176.251 137.83 176.332C138.641 176.414 139.393 176.795 139.939 177.399C140.486 178.004 140.789 178.79 140.789 179.605C140.789 180.42 140.486 181.207 139.939 181.811C139.393 182.416 138.641 182.796 137.83 182.878C137.019 182.96 136.206 182.738 135.55 182.255C134.893 181.772 134.439 181.062 134.276 180.263H53.9474V178.947H134.276ZM172.303 148.684C172.14 149.483 171.686 150.193 171.029 150.676C170.373 151.159 169.56 151.381 168.749 151.299C167.938 151.217 167.186 150.837 166.64 150.232C166.093 149.628 165.79 148.841 165.79 148.026C165.79 147.211 166.093 146.425 166.64 145.82C167.186 145.216 167.938 144.835 168.749 144.753C169.56 144.672 170.373 144.894 171.029 145.377C171.686 145.86 172.14 146.57 172.303 147.368H200V148.684H172.303ZM172.303 159.211C172.14 160.009 171.686 160.719 171.029 161.202C170.373 161.685 169.56 161.907 168.749 161.825C167.938 161.744 167.186 161.363 166.64 160.759C166.093 160.154 165.79 159.368 165.79 158.553C165.79 157.737 166.093 156.951 166.64 156.347C167.186 155.742 167.938 155.362 168.749 155.28C169.56 155.198 170.373 155.42 171.029 155.903C171.686 156.386 172.14 157.096 172.303 157.895H200V159.211H172.303ZM176.382 84.2105C176.545 83.4118 176.998 82.7021 177.655 82.2189C178.312 81.7358 179.124 81.5137 179.935 81.5956C180.746 81.6775 181.498 82.0577 182.045 82.6624C182.591 83.2671 182.894 84.0532 182.894 84.8684C182.894 85.6836 182.591 86.4697 182.045 87.0744C181.498 87.6791 180.746 88.0593 179.935 88.1412C179.124 88.2232 178.312 88.001 177.655 87.5179C176.998 87.0347 176.545 86.325 176.382 85.5263H119.671C119.508 86.325 119.054 87.0347 118.398 87.5179C117.741 88.001 116.928 88.2232 116.117 88.1412C115.306 88.0593 114.555 87.6791 114.008 87.0744C113.461 86.4697 113.159 85.6836 113.159 84.8684C113.159 84.0532 113.461 83.2671 114.008 82.6624C114.555 82.0577 115.306 81.6775 116.117 81.5956C116.928 81.5137 117.741 81.7358 118.398 82.2189C119.054 82.7021 119.508 83.4118 119.671 84.2105H176.382ZM7.96053 52.6316C8.12356 51.8329 8.57736 51.1231 9.23394 50.64C9.89052 50.1569 10.7031 49.9347 11.5142 50.0167C12.3252 50.0986 13.077 50.4788 13.6236 51.0834C14.1703 51.6881 14.473 52.4743 14.473 53.2895C14.473 54.1047 14.1703 54.8908 13.6236 55.4955C13.077 56.1002 12.3252 56.4804 11.5142 56.5623C10.7031 56.6442 9.89052 56.4221 9.23394 55.9389C8.57736 55.4558 8.12356 54.7461 7.96053 53.9474H0V52.6316H7.96053V52.6316ZM130.197 75C130.034 75.7987 129.581 76.5084 128.924 76.9916C128.267 77.4747 127.455 77.6969 126.644 77.6149C125.833 77.533 125.081 77.1528 124.534 76.5481C123.988 75.9434 123.685 75.1573 123.685 74.3421C123.685 73.5269 123.988 72.7408 124.534 72.1361C125.081 71.5314 125.833 71.1512 126.644 71.0693C127.455 70.9874 128.267 71.2095 128.924 71.6926C129.581 72.1758 130.034 72.8855 130.197 73.6842H186.908C187.071 72.8855 187.525 72.1758 188.181 71.6926C188.838 71.2095 189.65 70.9874 190.462 71.0693C191.273 71.1512 192.024 71.5314 192.571 72.1361C193.118 72.7408 193.42 73.5269 193.42 74.3421C193.42 75.1573 193.118 75.9434 192.571 76.5481C192.024 77.1528 191.273 77.533 190.462 77.6149C189.65 77.6969 188.838 77.4747 188.181 76.9916C187.525 76.5084 187.071 75.7987 186.908 75H130.197ZM169.737 7.96053C170.536 8.12356 171.245 8.57736 171.728 9.23394C172.212 9.89052 172.434 10.7031 172.352 11.5142C172.27 12.3252 171.89 13.077 171.285 13.6236C170.68 14.1703 169.894 14.473 169.079 14.473C168.264 14.473 167.478 14.1703 166.873 13.6236C166.268 13.077 165.888 12.3252 165.806 11.5142C165.724 10.7031 165.946 9.89052 166.429 9.23394C166.913 8.57736 167.622 8.12356 168.421 7.96053V0H169.737V7.96053ZM127.632 144.803C128.43 144.966 129.14 145.419 129.623 146.076C130.106 146.733 130.328 147.545 130.247 148.356C130.165 149.167 129.784 149.919 129.18 150.466C128.575 151.012 127.789 151.315 126.974 151.315C126.159 151.315 125.372 151.012 124.768 150.466C124.163 149.919 123.783 149.167 123.701 148.356C123.619 147.545 123.841 146.733 124.324 146.076C124.807 145.419 125.517 144.966 126.316 144.803V109.145C125.517 108.982 124.807 108.528 124.324 107.871C123.841 107.215 123.619 106.402 123.701 105.591C123.783 104.78 124.163 104.028 124.768 103.482C125.372 102.935 126.159 102.632 126.974 102.632C127.789 102.632 128.575 102.935 129.18 103.482C129.784 104.028 130.165 104.78 130.247 105.591C130.328 106.402 130.106 107.215 129.623 107.871C129.14 108.528 128.43 108.982 127.632 109.145V144.803V144.803ZM159.211 14.4079V52.6316H200V53.9474H157.895V14.4079C157.096 14.2449 156.386 13.7911 155.903 13.1345C155.42 12.4779 155.198 11.6653 155.28 10.8543C155.362 10.0432 155.742 9.29146 156.347 8.74478C156.951 8.19809 157.737 7.89541 158.553 7.89541C159.368 7.89541 160.154 8.19809 160.759 8.74478C161.363 9.29146 161.744 10.0432 161.825 10.8543C161.907 11.6653 161.685 12.4779 161.202 13.1345C160.719 13.7911 160.009 14.2449 159.211 14.4079V14.4079ZM169.737 24.9342V42.1053H200V43.4211H168.421V24.9342C167.622 24.7712 166.913 24.3174 166.429 23.6608C165.946 23.0042 165.724 22.1916 165.806 21.3806C165.888 20.5695 166.268 19.8178 166.873 19.2711C167.478 18.7244 168.264 18.4217 169.079 18.4217C169.894 18.4217 170.68 18.7244 171.285 19.2711C171.89 19.8178 172.27 20.5695 172.352 21.3806C172.434 22.1916 172.212 23.0042 171.728 23.6608C171.245 24.3174 170.536 24.7712 169.737 24.9342V24.9342ZM85.5263 88.0921V136.842H96.0526V144.803C96.8513 144.966 97.5611 145.419 98.0442 146.076C98.5273 146.733 98.7495 147.545 98.6676 148.356C98.5856 149.167 98.2055 149.919 97.6008 150.466C96.9961 151.012 96.2099 151.315 95.3947 151.315C94.5796 151.315 93.7934 151.012 93.1887 150.466C92.584 149.919 92.2038 149.167 92.1219 148.356C92.04 147.545 92.2621 146.733 92.7453 146.076C93.2284 145.419 93.9381 144.966 94.7368 144.803V138.158H84.2105V88.0921C83.4118 87.9291 82.7021 87.4753 82.2189 86.8187C81.7358 86.1621 81.5137 85.3495 81.5956 84.5385C81.6775 83.7274 82.0577 82.9757 82.6624 82.429C83.2671 81.8823 84.0532 81.5796 84.8684 81.5796C85.6836 81.5796 86.4697 81.8823 87.0744 82.429C87.6791 82.9757 88.0593 83.7274 88.1412 84.5385C88.2232 85.3495 88.001 86.1621 87.5179 86.8187C87.0347 87.4753 86.325 87.9291 85.5263 88.0921ZM81.6447 73.6842C81.8078 72.8855 82.2616 72.1758 82.9182 71.6926C83.5747 71.2095 84.3873 70.9874 85.1984 71.0693C86.0094 71.1512 86.7612 71.5314 87.3078 72.1361C87.8545 72.7408 88.1572 73.5269 88.1572 74.3421C88.1572 75.1573 87.8545 75.9434 87.3078 76.5481C86.7612 77.1528 86.0094 77.533 85.1984 77.6149C84.3873 77.6969 83.5747 77.4747 82.9182 76.9916C82.2616 76.5084 81.8078 75.7987 81.6447 75H75V106.579H56.5132C56.3501 107.378 55.8963 108.087 55.2397 108.571C54.5832 109.054 53.7706 109.276 52.9595 109.194C52.1485 109.112 51.3967 108.732 50.85 108.127C50.3034 107.522 50.0007 106.736 50.0007 105.921C50.0007 105.106 50.3034 104.32 50.85 103.715C51.3967 103.11 52.1485 102.73 52.9595 102.648C53.7706 102.566 54.5832 102.788 55.2397 103.272C55.8963 103.755 56.3501 104.464 56.5132 105.263H73.6842V73.6842H81.6447ZM77.5658 159.211C77.4028 160.009 76.949 160.719 76.2924 161.202C75.6358 161.685 74.8232 161.907 74.0122 161.825C73.2011 161.744 72.4494 161.363 71.9027 160.759C71.356 160.154 71.0533 159.368 71.0533 158.553C71.0533 157.737 71.356 156.951 71.9027 156.347C72.4494 155.742 73.2011 155.362 74.0122 155.28C74.8232 155.198 75.6358 155.42 76.2924 155.903C76.949 156.386 77.4028 157.096 77.5658 157.895H115.789V109.145C114.991 108.982 114.281 108.528 113.798 107.871C113.315 107.215 113.093 106.402 113.175 105.591C113.256 104.78 113.637 104.028 114.241 103.482C114.846 102.935 115.632 102.632 116.447 102.632C117.263 102.632 118.049 102.935 118.653 103.482C119.258 104.028 119.638 104.78 119.72 105.591C119.802 106.402 119.58 107.215 119.097 107.871C118.614 108.528 117.904 108.982 117.105 109.145V159.211H77.5658V159.211ZM67.0395 117.105C66.8764 117.904 66.4226 118.614 65.7661 119.097C65.1095 119.58 64.2969 119.802 63.4858 119.72C62.6748 119.638 61.923 119.258 61.3764 118.653C60.8297 118.049 60.527 117.263 60.527 116.447C60.527 115.632 60.8297 114.846 61.3764 114.241C61.923 113.637 62.6748 113.256 63.4858 113.175C64.2969 113.093 65.1095 113.315 65.7661 113.798C66.4226 114.281 66.8764 114.991 67.0395 115.789H75V147.368H81.6447C81.8078 146.57 82.2616 145.86 82.9182 145.377C83.5747 144.894 84.3873 144.672 85.1984 144.753C86.0094 144.835 86.7612 145.216 87.3078 145.82C87.8545 146.425 88.1572 147.211 88.1572 148.026C88.1572 148.841 87.8545 149.628 87.3078 150.232C86.7612 150.837 86.0094 151.217 85.1984 151.299C84.3873 151.381 83.5747 151.159 82.9182 150.676C82.2616 150.193 81.8078 149.483 81.6447 148.684H73.6842V117.105H67.0395V117.105ZM43.4211 186.908C44.2198 187.071 44.9295 187.525 45.4126 188.181C45.8958 188.838 46.1179 189.65 46.036 190.462C45.954 191.273 45.5739 192.024 44.9692 192.571C44.3645 193.118 43.5783 193.42 42.7632 193.42C41.948 193.42 41.1618 193.118 40.5571 192.571C39.9524 192.024 39.5723 191.273 39.4903 190.462C39.4084 189.65 39.6305 188.838 40.1137 188.181C40.5968 187.525 41.3066 187.071 42.1053 186.908V180.263H32.8947V200H31.5789V178.947H43.4211V186.908ZM155.329 115.789C155.492 114.991 155.946 114.281 156.602 113.798C157.259 113.315 158.072 113.093 158.883 113.175C159.694 113.256 160.445 113.637 160.992 114.241C161.539 114.846 161.841 115.632 161.841 116.447C161.841 117.263 161.539 118.049 160.992 118.653C160.445 119.258 159.694 119.638 158.883 119.72C158.072 119.802 157.259 119.58 156.602 119.097C155.946 118.614 155.492 117.904 155.329 117.105H148.684V178.947H180.263V200H178.947V180.263H147.368V115.789H155.329ZM172.303 96.0526C172.14 96.8513 171.686 97.5611 171.029 98.0442C170.373 98.5273 169.56 98.7495 168.749 98.6676C167.938 98.5856 167.186 98.2055 166.64 97.6008C166.093 96.9961 165.79 96.2099 165.79 95.3947C165.79 94.5796 166.093 93.7934 166.64 93.1887C167.186 92.584 167.938 92.2038 168.749 92.1219C169.56 92.04 170.373 92.2621 171.029 92.7453C171.686 93.2284 172.14 93.9381 172.303 94.7368H180.263V123.75C181.062 123.913 181.772 124.367 182.255 125.023C182.738 125.68 182.96 126.493 182.878 127.304C182.796 128.115 182.416 128.866 181.811 129.413C181.207 129.96 180.42 130.262 179.605 130.262C178.79 130.262 178.004 129.96 177.399 129.413C176.795 128.866 176.414 128.115 176.332 127.304C176.251 126.493 176.473 125.68 176.956 125.023C177.439 124.367 178.149 123.913 178.947 123.75V96.0526H172.303ZM130.197 159.211C130.034 160.009 129.581 160.719 128.924 161.202C128.267 161.685 127.455 161.907 126.644 161.825C125.833 161.744 125.081 161.363 124.534 160.759C123.988 160.154 123.685 159.368 123.685 158.553C123.685 157.737 123.988 156.951 124.534 156.347C125.081 155.742 125.833 155.362 126.644 155.28C127.455 155.198 128.267 155.42 128.924 155.903C129.581 156.386 130.034 157.096 130.197 157.895H136.842V105.263H147.368V96.0526H119.671C119.508 96.8513 119.054 97.5611 118.398 98.0442C117.741 98.5273 116.928 98.7495 116.117 98.6676C115.306 98.5856 114.555 98.2055 114.008 97.6008C113.461 96.9961 113.159 96.2099 113.159 95.3947C113.159 94.5796 113.461 93.7934 114.008 93.1887C114.555 92.584 115.306 92.2038 116.117 92.1219C116.928 92.04 117.741 92.2621 118.398 92.7453C119.054 93.2284 119.508 93.9381 119.671 94.7368H148.684V106.579H138.158V159.211H130.197V159.211ZM186.908 21.0526C187.071 20.2539 187.525 19.5442 188.181 19.0611C188.838 18.5779 189.65 18.3558 190.462 18.4377C191.273 18.5196 192.024 18.8998 192.571 19.5045C193.118 20.1092 193.42 20.8953 193.42 21.7105C193.42 22.5257 193.118 23.3119 192.571 23.9165C192.024 24.5212 191.273 24.9014 190.462 24.9833C189.65 25.0653 188.838 24.8431 188.181 24.36C187.525 23.8769 187.071 23.1671 186.908 22.3684H178.947V0H180.263V21.0526H186.908V21.0526ZM64.4737 67.0395V96.0526H35.4605C35.2975 96.8513 34.8437 97.5611 34.1871 98.0442C33.5305 98.5273 32.7179 98.7495 31.9069 98.6676C31.0958 98.5856 30.3441 98.2055 29.7974 97.6008C29.2507 96.9961 28.948 96.2099 28.948 95.3947C28.948 94.5796 29.2507 93.7934 29.7974 93.1887C30.3441 92.584 31.0958 92.2038 31.9069 92.1219C32.7179 92.04 33.5305 92.2621 34.1871 92.7453C34.8437 93.2284 35.2975 93.9381 35.4605 94.7368H63.1579V67.0395C62.3592 66.8764 61.6495 66.4226 61.1663 65.7661C60.6832 65.1095 60.461 64.2969 60.543 63.4858C60.6249 62.6748 61.0051 61.923 61.6098 61.3764C62.2145 60.8297 63.0006 60.527 63.8158 60.527C64.631 60.527 65.4171 60.8297 66.0218 61.3764C66.6265 61.923 67.0067 62.6748 67.0886 63.4858C67.1705 64.2969 66.9484 65.1095 66.4653 65.7661C65.9821 66.4226 65.2724 66.8764 64.4737 67.0395V67.0395ZM35.4605 22.3684C35.2975 23.1671 34.8437 23.8769 34.1871 24.36C33.5305 24.8431 32.7179 25.0653 31.9069 24.9833C31.0958 24.9014 30.3441 24.5212 29.7974 23.9165C29.2507 23.3119 28.948 22.5257 28.948 21.7105C28.948 20.8953 29.2507 20.1092 29.7974 19.5045C30.3441 18.8998 31.0958 18.5196 31.9069 18.4377C32.7179 18.3558 33.5305 18.5779 34.1871 19.0611C34.8437 19.5442 35.2975 20.2539 35.4605 21.0526H52.6316V0H53.9474V22.3684H35.4605ZM75 24.9342V43.4211H53.9474V85.5263H45.9868C45.8238 86.325 45.37 87.0347 44.7134 87.5179C44.0568 88.001 43.2443 88.2232 42.4332 88.1412C41.6222 88.0593 40.8704 87.6791 40.3237 87.0744C39.777 86.4697 39.4744 85.6836 39.4744 84.8684C39.4744 84.0532 39.777 83.2671 40.3237 82.6624C40.8704 82.0577 41.6222 81.6775 42.4332 81.5956C43.2443 81.5137 44.0568 81.7358 44.7134 82.2189C45.37 82.7021 45.8238 83.4118 45.9868 84.2105H52.6316V42.1053H73.6842V24.9342C72.8855 24.7712 72.1758 24.3174 71.6926 23.6608C71.2095 23.0042 70.9874 22.1916 71.0693 21.3806C71.1512 20.5695 71.5314 19.8178 72.1361 19.2711C72.7408 18.7244 73.5269 18.4217 74.3421 18.4217C75.1573 18.4217 75.9434 18.7244 76.5481 19.2711C77.1528 19.8178 77.533 20.5695 77.6149 21.3806C77.6969 22.1916 77.4747 23.0042 76.9916 23.6608C76.5084 24.3174 75.7987 24.7712 75 24.9342ZM67.0395 53.9474C66.8764 54.7461 66.4226 55.4558 65.7661 55.9389C65.1095 56.4221 64.2969 56.6442 63.4858 56.5623C62.6748 56.4804 61.923 56.1002 61.3764 55.4955C60.8297 54.8908 60.527 54.1047 60.527 53.2895C60.527 52.4743 60.8297 51.6881 61.3764 51.0834C61.923 50.4788 62.6748 50.0986 63.4858 50.0167C64.2969 49.9347 65.1095 50.1569 65.7661 50.64C66.4226 51.1231 66.8764 51.8329 67.0395 52.6316H84.2105V24.9342C83.4118 24.7712 82.7021 24.3174 82.2189 23.6608C81.7358 23.0042 81.5137 22.1916 81.5956 21.3806C81.6775 20.5695 82.0577 19.8178 82.6624 19.2711C83.2671 18.7244 84.0532 18.4217 84.8684 18.4217C85.6836 18.4217 86.4697 18.7244 87.0744 19.2711C87.6791 19.8178 88.0593 20.5695 88.1412 21.3806C88.2232 22.1916 88.001 23.0042 87.5179 23.6608C87.0347 24.3174 86.325 24.7712 85.5263 24.9342V53.9474H67.0395ZM77.5658 11.8421C77.4028 12.6408 76.949 13.3505 76.2924 13.8337C75.6358 14.3168 74.8232 14.539 74.0122 14.457C73.2011 14.3751 72.4494 13.9949 71.9027 13.3902C71.356 12.7855 71.0533 11.9994 71.0533 11.1842C71.0533 10.369 71.356 9.58288 71.9027 8.97819C72.4494 8.37349 73.2011 7.99333 74.0122 7.91139C74.8232 7.82946 75.6358 8.0516 76.2924 8.53474C76.949 9.01788 77.4028 9.7276 77.5658 10.5263H96.0526V39.5395C96.8513 39.7025 97.5611 40.1563 98.0442 40.8129C98.5273 41.4695 98.7495 42.2821 98.6676 43.0931C98.5856 43.9042 98.2055 44.6559 97.6008 45.2026C96.9961 45.7493 96.2099 46.052 95.3947 46.052C94.5796 46.052 93.7934 45.7493 93.1887 45.2026C92.584 44.6559 92.2038 43.9042 92.1219 43.0931C92.04 42.2821 92.2621 41.4695 92.7453 40.8129C93.2284 40.1563 93.9381 39.7025 94.7368 39.5395V11.8421H77.5658ZM144.803 189.474C144.966 188.675 145.419 187.965 146.076 187.482C146.733 186.999 147.545 186.777 148.356 186.859C149.167 186.941 149.919 187.321 150.466 187.926C151.012 188.53 151.315 189.316 151.315 190.132C151.315 190.947 151.012 191.733 150.466 192.338C149.919 192.942 149.167 193.322 148.356 193.404C147.545 193.486 146.733 193.264 146.076 192.781C145.419 192.298 144.966 191.588 144.803 190.789H64.4737V200H63.1579V189.474H144.803V189.474ZM159.211 98.6184V105.263H169.737V127.632H159.211V168.421H190.789V200H189.474V169.737H157.895V126.316H168.421V106.579H157.895V98.6184C157.096 98.4554 156.386 98.0016 155.903 97.345C155.42 96.6884 155.198 95.8758 155.28 95.0648C155.362 94.2537 155.742 93.502 156.347 92.9553C156.951 92.4086 157.737 92.1059 158.553 92.1059C159.368 92.1059 160.154 92.4086 160.759 92.9553C161.363 93.502 161.744 94.2537 161.825 95.0648C161.907 95.8758 161.685 96.6884 161.202 97.345C160.719 98.0016 160.009 98.4554 159.211 98.6184V98.6184ZM35.4605 11.8421C35.2975 12.6408 34.8437 13.3505 34.1871 13.8337C33.5305 14.3168 32.7179 14.539 31.9069 14.457C31.0958 14.3751 30.3441 13.9949 29.7974 13.3902C29.2507 12.7855 28.948 11.9994 28.948 11.1842C28.948 10.369 29.2507 9.58288 29.7974 8.97819C30.3441 8.37349 31.0958 7.99333 31.9069 7.91139C32.7179 7.82946 33.5305 8.0516 34.1871 8.53474C34.8437 9.01788 35.2975 9.7276 35.4605 10.5263H42.1053V1.31579H31.5789V0H43.4211V11.8421H35.4605ZM109.145 32.8947C108.982 33.6934 108.528 34.4032 107.871 34.8863C107.215 35.3695 106.402 35.5916 105.591 35.5097C104.78 35.4277 104.028 35.0476 103.482 34.4429C102.935 33.8382 102.632 33.052 102.632 32.2368C102.632 31.4217 102.935 30.6355 103.482 30.0308C104.028 29.4261 104.78 29.046 105.591 28.964C106.402 28.8821 107.215 29.1042 107.871 29.5874C108.528 30.0705 108.982 30.7802 109.145 31.5789H126.316V0H159.211V1.31579H127.632V32.8947H109.145ZM77.5658 1.31579C77.4794 1.73913 77.3105 2.14131 77.0686 2.49936C76.8268 2.85741 76.5168 3.16433 76.1564 3.40259C75.796 3.64084 75.3921 3.80577 74.9679 3.88796C74.5438 3.97014 74.1076 3.96797 73.6842 3.88158C73.2609 3.79518 72.8587 3.62625 72.5006 3.38443C72.1426 3.1426 71.8357 2.83262 71.5974 2.47218C71.1162 1.74424 70.9439 0.854974 71.1184 0L72.4803 0C72.3756 0.29761 72.3437 0.615982 72.3875 0.928427C72.4312 1.24087 72.5491 1.53829 72.7315 1.79574C72.9138 2.05319 73.1553 2.26318 73.4355 2.4081C73.7157 2.55301 74.0266 2.62864 74.3421 2.62864C74.6576 2.62864 74.9685 2.55301 75.2487 2.4081C75.529 2.26318 75.7704 2.05319 75.9527 1.79574C76.1351 1.53829 76.253 1.24087 76.2968 0.928427C76.3405 0.615982 76.3086 0.29761 76.2039 0L117.105 0V22.3684H105.263V14.4079C104.464 14.2449 103.755 13.7911 103.272 13.1345C102.788 12.4779 102.566 11.6653 102.648 10.8543C102.73 10.0432 103.11 9.29146 103.715 8.74478C104.32 8.19809 105.106 7.89541 105.921 7.89541C106.736 7.89541 107.522 8.19809 108.127 8.74478C108.732 9.29146 109.112 10.0432 109.194 10.8543C109.276 11.6653 109.054 12.4779 108.571 13.1345C108.087 13.7911 107.378 14.2449 106.579 14.4079V21.0526H115.789V1.31579H77.5658ZM77.5658 64.4737C77.4028 65.2724 76.949 65.9821 76.2924 66.4653C75.6358 66.9484 74.8232 67.1705 74.0122 67.0886C73.2011 67.0067 72.4494 66.6265 71.9027 66.0218C71.356 65.4171 71.0533 64.631 71.0533 63.8158C71.0533 63.0006 71.356 62.2145 71.9027 61.6098C72.4494 61.0051 73.2011 60.6249 74.0122 60.543C74.8232 60.461 75.6358 60.6832 76.2924 61.1663C76.949 61.6495 77.4028 62.3592 77.5658 63.1579H90.1316L111.184 42.1053H136.842V14.4079C136.043 14.2449 135.334 13.7911 134.851 13.1345C134.367 12.4779 134.145 11.6653 134.227 10.8543C134.309 10.0432 134.689 9.29146 135.294 8.74478C135.899 8.19809 136.685 7.89541 137.5 7.89541C138.315 7.89541 139.101 8.19809 139.706 8.74478C140.311 9.29146 140.691 10.0432 140.773 10.8543C140.855 11.6653 140.633 12.4779 140.149 13.1345C139.666 13.7911 138.957 14.2449 138.158 14.4079V43.4211H111.73L90.6776 64.4737H77.5658ZM96.0526 123.75C96.8513 123.913 97.5611 124.367 98.0442 125.023C98.5273 125.68 98.7495 126.493 98.6676 127.304C98.5856 128.115 98.2055 128.866 97.6008 129.413C96.9961 129.96 96.2099 130.262 95.3947 130.262C94.5796 130.262 93.7934 129.96 93.1887 129.413C92.584 128.866 92.2038 128.115 92.1219 127.304C92.04 126.493 92.2621 125.68 92.7453 125.023C93.2284 124.367 93.9381 123.913 94.7368 123.75V73.4145L115.52 52.6316H147.368V14.4079C146.57 14.2449 145.86 13.7911 145.377 13.1345C144.894 12.4779 144.672 11.6653 144.753 10.8543C144.835 10.0432 145.216 9.29146 145.82 8.74478C146.425 8.19809 147.211 7.89541 148.026 7.89541C148.841 7.89541 149.628 8.19809 150.232 8.74478C150.837 9.29146 151.217 10.0432 151.299 10.8543C151.381 11.6653 151.159 12.4779 150.676 13.1345C150.193 13.7911 149.483 14.2449 148.684 14.4079V53.9474H116.059L96.0526 73.9539V123.75ZM106.579 144.803C107.378 144.966 108.087 145.419 108.571 146.076C109.054 146.733 109.276 147.545 109.194 148.356C109.112 149.167 108.732 149.919 108.127 150.466C107.522 151.012 106.736 151.315 105.921 151.315C105.106 151.315 104.32 151.012 103.715 150.466C103.11 149.919 102.73 149.167 102.648 148.356C102.566 147.545 102.788 146.733 103.272 146.076C103.755 145.419 104.464 144.966 105.263 144.803V79.3355L121.441 63.1579H197.434C197.563 62.5257 197.875 61.9454 198.331 61.4892C198.788 61.033 199.368 60.721 200 60.5921V61.9539C199.614 62.0896 199.281 62.3415 199.044 62.675C198.808 63.0085 198.681 63.4071 198.681 63.8158C198.681 64.2245 198.808 64.6231 199.044 64.9566C199.281 65.2901 199.614 65.542 200 65.6776V67.0395C199.368 66.9105 198.788 66.5986 198.331 66.1424C197.875 65.6861 197.563 65.1058 197.434 64.4737H121.98L106.579 79.875V144.803ZM11.8421 102.697C12.6408 102.86 13.3505 103.314 13.8337 103.971C14.3168 104.627 14.539 105.44 14.457 106.251C14.3751 107.062 13.9949 107.814 13.3902 108.36C12.7855 108.907 11.9994 109.21 11.1842 109.21C10.369 109.21 9.58288 108.907 8.97819 108.36C8.37349 107.814 7.99333 107.062 7.91139 106.251C7.82946 105.44 8.0516 104.627 8.53474 103.971C9.01788 103.314 9.7276 102.86 10.5263 102.697V100.388L42.1053 68.8092V31.5789H63.1579V0H64.4737V32.8947H43.4211V69.3487L11.8421 100.928V102.697ZM32.8947 35.4605V64.0855L1.31579 95.6645V136.842H18.4868C18.6499 136.043 19.1037 135.334 19.7603 134.851C20.4168 134.367 21.2294 134.145 22.0405 134.227C22.8515 134.309 23.6033 134.689 24.15 135.294C24.6966 135.899 24.9993 136.685 24.9993 137.5C24.9993 138.315 24.6966 139.101 24.15 139.706C23.6033 140.311 22.8515 140.691 22.0405 140.773C21.2294 140.855 20.4168 140.633 19.7603 140.149C19.1037 139.666 18.6499 138.957 18.4868 138.158H0V95.125L31.5789 63.546V35.4605C30.7802 35.2975 30.0705 34.8437 29.5874 34.1871C29.1042 33.5305 28.8821 32.7179 28.964 31.9069C29.046 31.0958 29.4261 30.3441 30.0308 29.7974C30.6355 29.2507 31.4217 28.948 32.2368 28.948C33.052 28.948 33.8382 29.2507 34.4429 29.7974C35.0476 30.3441 35.4277 31.0958 35.5097 31.9069C35.5916 32.7179 35.3695 33.5305 34.8863 34.1871C34.4032 34.8437 33.6934 35.2975 32.8947 35.4605V35.4605ZM22.3684 45.9868V58.8224L0 81.1908V79.3355L21.0526 58.2829V45.9868C20.2539 45.8238 19.5442 45.37 19.0611 44.7134C18.5779 44.0568 18.3558 43.2443 18.4377 42.4332C18.5196 41.6222 18.8998 40.8704 19.5045 40.3237C20.1092 39.777 20.8953 39.4744 21.7105 39.4744C22.5257 39.4744 23.3119 39.777 23.9165 40.3237C24.5212 40.8704 24.9014 41.6222 24.9833 42.4332C25.0653 43.2443 24.8431 44.0568 24.36 44.7134C23.8769 45.37 23.1671 45.8238 22.3684 45.9868ZM7.96053 21.0526C8.12356 20.2539 8.57736 19.5442 9.23394 19.0611C9.89052 18.5779 10.7031 18.3558 11.5142 18.4377C12.3252 18.5196 13.077 18.8998 13.6236 19.5045C14.1703 20.1092 14.473 20.8953 14.473 21.7105C14.473 22.5257 14.1703 23.3119 13.6236 23.9165C13.077 24.5212 12.3252 24.9014 11.5142 24.9833C10.7031 25.0653 9.89052 24.8431 9.23394 24.36C8.57736 23.8769 8.12356 23.1671 7.96053 22.3684H6.19079L0 28.5592V26.7105L5.65132 21.0526H7.96053ZM182.829 32.8947C182.666 33.6934 182.212 34.4032 181.556 34.8863C180.899 35.3695 180.086 35.5916 179.275 35.5097C178.464 35.4277 177.713 35.0476 177.166 34.4429C176.619 33.8382 176.316 33.052 176.316 32.2368C176.316 31.4217 176.619 30.6355 177.166 30.0308C177.713 29.4261 178.464 29.046 179.275 28.964C180.086 28.8821 180.899 29.1042 181.556 29.5874C182.212 30.0705 182.666 30.7802 182.829 31.5789H195.125L200 26.7039V28.5592L195.664 32.8947H182.829V32.8947ZM172.303 138.158C172.14 138.957 171.686 139.666 171.029 140.149C170.373 140.633 169.56 140.855 168.749 140.773C167.938 140.691 167.186 140.311 166.64 139.706C166.093 139.101 165.79 138.315 165.79 137.5C165.79 136.685 166.093 135.899 166.64 135.294C167.186 134.689 167.938 134.309 168.749 134.227C169.56 134.145 170.373 134.367 171.029 134.851C171.686 135.334 172.14 136.043 172.303 136.842H189.474V89.8618L200 79.3355V81.1908L190.789 90.4013V138.158H172.303V138.158ZM35.4605 159.211C35.2975 160.009 34.8437 160.719 34.1871 161.202C33.5305 161.685 32.7179 161.907 31.9069 161.825C31.0958 161.744 30.3441 161.363 29.7974 160.759C29.2507 160.154 28.948 159.368 28.948 158.553C28.948 157.737 29.2507 156.951 29.7974 156.347C30.3441 155.742 31.0958 155.362 31.9069 155.28C32.7179 155.198 33.5305 155.42 34.1871 155.903C34.8437 156.386 35.2975 157.096 35.4605 157.895H42.1053V143.033L26.7039 127.632H14.4079C14.2449 128.43 13.7911 129.14 13.1345 129.623C12.4779 130.106 11.6653 130.328 10.8543 130.247C10.0432 130.165 9.29146 129.784 8.74478 129.18C8.19809 128.575 7.89541 127.789 7.89541 126.974C7.89541 126.159 8.19809 125.372 8.74478 124.768C9.29146 124.163 10.0432 123.783 10.8543 123.701C11.6653 123.619 12.4779 123.841 13.1345 124.324C13.7911 124.807 14.2449 125.517 14.4079 126.316H27.2434L43.4211 142.493V159.211H35.4605V159.211ZM134.276 168.421C134.439 167.622 134.893 166.913 135.55 166.429C136.206 165.946 137.019 165.724 137.83 165.806C138.641 165.888 139.393 166.268 139.939 166.873C140.486 167.478 140.789 168.264 140.789 169.079C140.789 169.894 140.486 170.68 139.939 171.285C139.393 171.89 138.641 172.27 137.83 172.352C137.019 172.434 136.206 172.212 135.55 171.728C134.893 171.245 134.439 170.536 134.276 169.737H63.1579V132.5L37.2368 106.579H24.9342C24.7712 107.378 24.3174 108.087 23.6608 108.571C23.0042 109.054 22.1916 109.276 21.3806 109.194C20.5695 109.112 19.8178 108.732 19.2711 108.127C18.7244 107.522 18.4217 106.736 18.4217 105.921C18.4217 105.106 18.7244 104.32 19.2711 103.715C19.8178 103.11 20.5695 102.73 21.3806 102.648C22.1916 102.566 23.0042 102.788 23.6608 103.272C24.3174 103.755 24.7712 104.464 24.9342 105.263H37.7632L64.4737 131.974V168.421H134.276V168.421ZM35.4605 169.737C35.2975 170.536 34.8437 171.245 34.1871 171.728C33.5305 172.212 32.7179 172.434 31.9069 172.352C31.0958 172.27 30.3441 171.89 29.7974 171.285C29.2507 170.68 28.948 169.894 28.948 169.079C28.948 168.264 29.2507 167.478 29.7974 166.873C30.3441 166.268 31.0958 165.888 31.9069 165.806C32.7179 165.724 33.5305 165.946 34.1871 166.429C34.8437 166.913 35.2975 167.622 35.4605 168.421H52.6316V137.77L31.9671 117.105H14.4079C14.2449 117.904 13.7911 118.614 13.1345 119.097C12.4779 119.58 11.6653 119.802 10.8543 119.72C10.0432 119.638 9.29146 119.258 8.74478 118.653C8.19809 118.049 7.89541 117.263 7.89541 116.447C7.89541 115.632 8.19809 114.846 8.74478 114.241C9.29146 113.637 10.0432 113.256 10.8543 113.175C11.6653 113.093 12.4779 113.315 13.1345 113.798C13.7911 114.281 14.2449 114.991 14.4079 115.789H32.5066L53.9474 137.23V169.737H35.4605V169.737ZM22.3684 26.1842V27.2434L6.19079 43.4211H0V42.1053H5.65132L21.0526 26.7039V0H22.3684V26.1842ZM1.31579 197.434C1.94796 197.563 2.52825 197.875 2.98446 198.331C3.44067 198.788 3.75265 199.368 3.88158 200H2.51974C2.43345 199.755 2.29981 199.53 2.12644 199.337C1.95308 199.144 1.7434 198.988 1.50939 198.876C1.27538 198.764 1.02162 198.699 0.762631 198.686C0.503641 198.672 0.244492 198.71 0 198.796L0 168.421H11.8421V200H10.5263V169.737H1.31579V197.434ZM22.3684 158.553V200H21.0526V159.211H0V157.895H22.3684V158.553ZM11.1842 11.8421H0V10.5263H10.5263V0H11.8421V11.8421H11.1842ZM190.789 10.5263H200V11.8421H189.474V0H190.789V10.5263ZM169.737 190.132V200H168.421V190.789H159.211V200H157.895V189.474H169.737V190.132ZM0 60.5921C0.477708 60.497 0.970536 60.5088 1.44317 60.6265C1.9158 60.7443 2.35654 60.9651 2.7338 61.2732C3.11106 61.5813 3.4155 61.969 3.62531 62.4086C3.83512 62.8482 3.9451 63.3287 3.94737 63.8158C3.94747 64.3036 3.83906 64.7854 3.63 65.2262C3.42093 65.6669 3.11645 66.0557 2.7386 66.3643C2.36075 66.6728 1.919 66.8935 1.44534 67.0103C0.971686 67.1271 0.477984 67.137 0 67.0395L0 65.6776C0.29761 65.7823 0.615982 65.8141 0.928427 65.7704C1.24087 65.7267 1.53829 65.6087 1.79574 65.4264C2.05319 65.244 2.26318 65.0026 2.4081 64.7224C2.55301 64.4422 2.62864 64.1313 2.62864 63.8158C2.62864 63.5003 2.55301 63.1894 2.4081 62.9092C2.26318 62.6289 2.05319 62.3875 1.79574 62.2052C1.53829 62.0228 1.24087 61.9049 0.928427 61.8611C0.615982 61.8174 0.29761 61.8493 0 61.9539L0 60.5921ZM52.6316 178.947H53.9474V200H52.6316V178.947ZM77.5658 200H76.2039C76.0683 199.614 75.8164 199.281 75.4829 199.044C75.1494 198.808 74.7508 198.681 74.3421 198.681C73.9334 198.681 73.5348 198.808 73.2013 199.044C72.8678 199.281 72.6159 199.614 72.4803 200H71.1184C71.2694 199.256 71.6728 198.588 72.2604 198.108C72.8479 197.627 73.5833 197.365 74.3421 197.365C75.1009 197.365 75.8363 197.627 76.4239 198.108C77.0114 198.588 77.4148 199.256 77.5658 200V200ZM3.88158 0C3.98707 0.53236 3.95974 1.08251 3.802 1.6018C3.64427 2.12108 3.361 2.59349 2.97725 2.97725C2.59349 3.361 2.12108 3.64427 1.6018 3.802C1.08251 3.95974 0.53236 3.98707 0 3.88158L0 2.51974C0.351459 2.64434 0.731026 2.66682 1.09474 2.58459C1.45845 2.50236 1.79143 2.31878 2.0551 2.0551C2.31878 1.79143 2.50236 1.45845 2.58459 1.09474C2.66682 0.731026 2.64434 0.351459 2.51974 0L3.88158 0ZM197.434 0H198.796C198.71 0.244492 198.672 0.503641 198.686 0.762631C198.699 1.02162 198.764 1.27538 198.876 1.50939C198.988 1.7434 199.144 1.95308 199.337 2.12644C199.53 2.29981 199.755 2.43345 200 2.51974V3.88158C199.577 3.79526 199.174 3.62638 198.816 3.38458C198.458 3.14277 198.151 2.83279 197.913 2.47233C197.675 2.11187 197.51 1.708 197.428 1.28379C197.345 0.859585 197.348 0.423347 197.434 0V0ZM200 197.434V198.796C199.722 198.894 199.47 199.053 199.262 199.262C199.053 199.47 198.894 199.722 198.796 200H197.434C197.563 199.368 197.875 198.788 198.331 198.331C198.788 197.875 199.368 197.563 200 197.434V197.434ZM63.8158 65.7895C64.075 65.7895 64.3316 65.7384 64.5711 65.6392C64.8105 65.54 65.0281 65.3947 65.2114 65.2114C65.3947 65.0281 65.54 64.8105 65.6392 64.5711C65.7384 64.3316 65.7895 64.075 65.7895 63.8158C65.7895 63.5566 65.7384 63.3 65.6392 63.0605C65.54 62.821 65.3947 62.6035 65.2114 62.4202C65.0281 62.2369 64.8105 62.0915 64.5711 61.9923C64.3316 61.8932 64.075 61.8421 63.8158 61.8421C63.2923 61.8421 62.7903 62.05 62.4202 62.4202C62.05 62.7903 61.8421 63.2923 61.8421 63.8158C61.8421 64.3392 62.05 64.8413 62.4202 65.2114C62.7903 65.5815 63.2923 65.7895 63.8158 65.7895V65.7895ZM63.8158 55.2632C64.3392 55.2632 64.8413 55.0552 65.2114 54.6851C65.5815 54.3149 65.7895 53.8129 65.7895 53.2895C65.7895 52.766 65.5815 52.264 65.2114 51.8939C64.8413 51.5237 64.3392 51.3158 63.8158 51.3158C63.2923 51.3158 62.7903 51.5237 62.4202 51.8939C62.05 52.264 61.8421 52.766 61.8421 53.2895C61.8421 53.8129 62.05 54.3149 62.4202 54.6851C62.7903 55.0552 63.2923 55.2632 63.8158 55.2632V55.2632ZM74.3421 65.7895C74.6013 65.7895 74.8579 65.7384 75.0974 65.6392C75.3369 65.54 75.5544 65.3947 75.7377 65.2114C75.921 65.0281 76.0664 64.8105 76.1655 64.5711C76.2647 64.3316 76.3158 64.075 76.3158 63.8158C76.3158 63.5566 76.2647 63.3 76.1655 63.0605C76.0664 62.821 75.921 62.6035 75.7377 62.4202C75.5544 62.2369 75.3369 62.0915 75.0974 61.9923C74.8579 61.8932 74.6013 61.8421 74.3421 61.8421C73.8187 61.8421 73.3166 62.05 72.9465 62.4202C72.5764 62.7903 72.3684 63.2923 72.3684 63.8158C72.3684 64.3392 72.5764 64.8413 72.9465 65.2114C73.3166 65.5815 73.8187 65.7895 74.3421 65.7895V65.7895ZM84.8684 76.3158C85.3919 76.3158 85.8939 76.1078 86.264 75.7377C86.6342 75.3676 86.8421 74.8656 86.8421 74.3421C86.8421 73.8187 86.6342 73.3166 86.264 72.9465C85.8939 72.5764 85.3919 72.3684 84.8684 72.3684C84.345 72.3684 83.843 72.5764 83.4728 72.9465C83.1027 73.3166 82.8947 73.8187 82.8947 74.3421C82.8947 74.8656 83.1027 75.3676 83.4728 75.7377C83.843 76.1078 84.345 76.3158 84.8684 76.3158ZM84.8684 86.8421C85.3919 86.8421 85.8939 86.6342 86.264 86.264C86.6342 85.8939 86.8421 85.3919 86.8421 84.8684C86.8421 84.345 86.6342 83.843 86.264 83.4728C85.8939 83.1027 85.3919 82.8947 84.8684 82.8947C84.345 82.8947 83.843 83.1027 83.4728 83.4728C83.1027 83.843 82.8947 84.345 82.8947 84.8684C82.8947 85.3919 83.1027 85.8939 83.4728 86.264C83.843 86.6342 84.345 86.8421 84.8684 86.8421ZM53.2895 107.895C53.8129 107.895 54.3149 107.687 54.6851 107.317C55.0552 106.947 55.2632 106.445 55.2632 105.921C55.2632 105.398 55.0552 104.896 54.6851 104.525C54.3149 104.155 53.8129 103.947 53.2895 103.947C52.766 103.947 52.264 104.155 51.8939 104.525C51.5237 104.896 51.3158 105.398 51.3158 105.921C51.3158 106.445 51.5237 106.947 51.8939 107.317C52.264 107.687 52.766 107.895 53.2895 107.895V107.895ZM63.8158 118.421C64.3392 118.421 64.8413 118.213 65.2114 117.843C65.5815 117.473 65.7895 116.971 65.7895 116.447C65.7895 115.924 65.5815 115.422 65.2114 115.052C64.8413 114.682 64.3392 114.474 63.8158 114.474C63.2923 114.474 62.7903 114.682 62.4202 115.052C62.05 115.422 61.8421 115.924 61.8421 116.447C61.8421 116.971 62.05 117.473 62.4202 117.843C62.7903 118.213 63.2923 118.421 63.8158 118.421V118.421ZM84.8684 150C85.3919 150 85.8939 149.792 86.264 149.422C86.6342 149.052 86.8421 148.55 86.8421 148.026C86.8421 147.503 86.6342 147.001 86.264 146.631C85.8939 146.261 85.3919 146.053 84.8684 146.053C84.345 146.053 83.843 146.261 83.4728 146.631C83.1027 147.001 82.8947 147.503 82.8947 148.026C82.8947 148.55 83.1027 149.052 83.4728 149.422C83.843 149.792 84.345 150 84.8684 150ZM74.3421 160.526C74.8656 160.526 75.3676 160.318 75.7377 159.948C76.1078 159.578 76.3158 159.076 76.3158 158.553C76.3158 158.029 76.1078 157.527 75.7377 157.157C75.3676 156.787 74.8656 156.579 74.3421 156.579C73.8187 156.579 73.3166 156.787 72.9465 157.157C72.5764 157.527 72.3684 158.029 72.3684 158.553C72.3684 159.076 72.5764 159.578 72.9465 159.948C73.3166 160.318 73.8187 160.526 74.3421 160.526V160.526ZM95.3947 150C95.9182 150 96.4202 149.792 96.7903 149.422C97.1605 149.052 97.3684 148.55 97.3684 148.026C97.3684 147.503 97.1605 147.001 96.7903 146.631C96.4202 146.261 95.9182 146.053 95.3947 146.053C94.8713 146.053 94.3693 146.261 93.9991 146.631C93.629 147.001 93.4211 147.503 93.4211 148.026C93.4211 148.55 93.629 149.052 93.9991 149.422C94.3693 149.792 94.8713 150 95.3947 150ZM95.3947 128.947C95.9182 128.947 96.4202 128.739 96.7903 128.369C97.1605 127.999 97.3684 127.497 97.3684 126.974C97.3684 126.45 97.1605 125.948 96.7903 125.578C96.4202 125.208 95.9182 125 95.3947 125C94.8713 125 94.3693 125.208 93.9991 125.578C93.629 125.948 93.4211 126.45 93.4211 126.974C93.4211 127.497 93.629 127.999 93.9991 128.369C94.3693 128.739 94.8713 128.947 95.3947 128.947ZM105.921 150C106.445 150 106.947 149.792 107.317 149.422C107.687 149.052 107.895 148.55 107.895 148.026C107.895 147.503 107.687 147.001 107.317 146.631C106.947 146.261 106.445 146.053 105.921 146.053C105.398 146.053 104.896 146.261 104.525 146.631C104.155 147.001 103.947 147.503 103.947 148.026C103.947 148.55 104.155 149.052 104.525 149.422C104.896 149.792 105.398 150 105.921 150ZM126.974 160.526C127.497 160.526 127.999 160.318 128.369 159.948C128.739 159.578 128.947 159.076 128.947 158.553C128.947 158.029 128.739 157.527 128.369 157.157C127.999 156.787 127.497 156.579 126.974 156.579C126.45 156.579 125.948 156.787 125.578 157.157C125.208 157.527 125 158.029 125 158.553C125 159.076 125.208 159.578 125.578 159.948C125.948 160.318 126.45 160.526 126.974 160.526ZM126.974 150C127.497 150 127.999 149.792 128.369 149.422C128.739 149.052 128.947 148.55 128.947 148.026C128.947 147.503 128.739 147.001 128.369 146.631C127.999 146.261 127.497 146.053 126.974 146.053C126.45 146.053 125.948 146.261 125.578 146.631C125.208 147.001 125 147.503 125 148.026C125 148.55 125.208 149.052 125.578 149.422C125.948 149.792 126.45 150 126.974 150ZM116.447 107.895C116.971 107.895 117.473 107.687 117.843 107.317C118.213 106.947 118.421 106.445 118.421 105.921C118.421 105.398 118.213 104.896 117.843 104.525C117.473 104.155 116.971 103.947 116.447 103.947C115.924 103.947 115.422 104.155 115.052 104.525C114.682 104.896 114.474 105.398 114.474 105.921C114.474 106.445 114.682 106.947 115.052 107.317C115.422 107.687 115.924 107.895 116.447 107.895ZM126.974 107.895C127.497 107.895 127.999 107.687 128.369 107.317C128.739 106.947 128.947 106.445 128.947 105.921C128.947 105.398 128.739 104.896 128.369 104.525C127.999 104.155 127.497 103.947 126.974 103.947C126.45 103.947 125.948 104.155 125.578 104.525C125.208 104.896 125 105.398 125 105.921C125 106.445 125.208 106.947 125.578 107.317C125.948 107.687 126.45 107.895 126.974 107.895ZM137.5 171.053C138.023 171.053 138.525 170.845 138.896 170.475C139.266 170.104 139.474 169.602 139.474 169.079C139.474 168.555 139.266 168.053 138.896 167.683C138.525 167.313 138.023 167.105 137.5 167.105C136.977 167.105 136.475 167.313 136.104 167.683C135.734 168.053 135.526 168.555 135.526 169.079C135.526 169.602 135.734 170.104 136.104 170.475C136.475 170.845 136.977 171.053 137.5 171.053V171.053ZM137.5 181.579C138.023 181.579 138.525 181.371 138.896 181.001C139.266 180.631 139.474 180.129 139.474 179.605C139.474 179.082 139.266 178.58 138.896 178.21C138.525 177.84 138.023 177.632 137.5 177.632C136.977 177.632 136.475 177.84 136.104 178.21C135.734 178.58 135.526 179.082 135.526 179.605C135.526 180.129 135.734 180.631 136.104 181.001C136.475 181.371 136.977 181.579 137.5 181.579V181.579ZM148.026 192.105C148.55 192.105 149.052 191.897 149.422 191.527C149.792 191.157 150 190.655 150 190.132C150 189.608 149.792 189.106 149.422 188.736C149.052 188.366 148.55 188.158 148.026 188.158C147.503 188.158 147.001 188.366 146.631 188.736C146.261 189.106 146.053 189.608 146.053 190.132C146.053 190.655 146.261 191.157 146.631 191.527C147.001 191.897 147.503 192.105 148.026 192.105ZM158.553 97.3684C159.076 97.3684 159.578 97.1605 159.948 96.7903C160.318 96.4202 160.526 95.9182 160.526 95.3947C160.526 94.8713 160.318 94.3693 159.948 93.9991C159.578 93.629 159.076 93.4211 158.553 93.4211C158.029 93.4211 157.527 93.629 157.157 93.9991C156.787 94.3693 156.579 94.8713 156.579 95.3947C156.579 95.9182 156.787 96.4202 157.157 96.7903C157.527 97.1605 158.029 97.3684 158.553 97.3684ZM158.553 118.421C159.076 118.421 159.578 118.213 159.948 117.843C160.318 117.473 160.526 116.971 160.526 116.447C160.526 115.924 160.318 115.422 159.948 115.052C159.578 114.682 159.076 114.474 158.553 114.474C158.029 114.474 157.527 114.682 157.157 115.052C156.787 115.422 156.579 115.924 156.579 116.447C156.579 116.971 156.787 117.473 157.157 117.843C157.527 118.213 158.029 118.421 158.553 118.421ZM169.079 97.3684C169.602 97.3684 170.104 97.1605 170.475 96.7903C170.845 96.4202 171.053 95.9182 171.053 95.3947C171.053 94.8713 170.845 94.3693 170.475 93.9991C170.104 93.629 169.602 93.4211 169.079 93.4211C168.555 93.4211 168.053 93.629 167.683 93.9991C167.313 94.3693 167.105 94.8713 167.105 95.3947C167.105 95.9182 167.313 96.4202 167.683 96.7903C168.053 97.1605 168.555 97.3684 169.079 97.3684ZM179.605 86.8421C180.129 86.8421 180.631 86.6342 181.001 86.264C181.371 85.8939 181.579 85.3919 181.579 84.8684C181.579 84.345 181.371 83.843 181.001 83.4728C180.631 83.1027 180.129 82.8947 179.605 82.8947C179.082 82.8947 178.58 83.1027 178.21 83.4728C177.84 83.843 177.632 84.345 177.632 84.8684C177.632 85.3919 177.84 85.8939 178.21 86.264C178.58 86.6342 179.082 86.8421 179.605 86.8421ZM116.447 86.8421C116.971 86.8421 117.473 86.6342 117.843 86.264C118.213 85.8939 118.421 85.3919 118.421 84.8684C118.421 84.345 118.213 83.843 117.843 83.4728C117.473 83.1027 116.971 82.8947 116.447 82.8947C115.924 82.8947 115.422 83.1027 115.052 83.4728C114.682 83.843 114.474 84.345 114.474 84.8684C114.474 85.3919 114.682 85.8939 115.052 86.264C115.422 86.6342 115.924 86.8421 116.447 86.8421ZM116.447 97.3684C116.971 97.3684 117.473 97.1605 117.843 96.7903C118.213 96.4202 118.421 95.9182 118.421 95.3947C118.421 94.8713 118.213 94.3693 117.843 93.9991C117.473 93.629 116.971 93.4211 116.447 93.4211C115.924 93.4211 115.422 93.629 115.052 93.9991C114.682 94.3693 114.474 94.8713 114.474 95.3947C114.474 95.9182 114.682 96.4202 115.052 96.7903C115.422 97.1605 115.924 97.3684 116.447 97.3684ZM126.974 76.3158C127.497 76.3158 127.999 76.1078 128.369 75.7377C128.739 75.3676 128.947 74.8656 128.947 74.3421C128.947 73.8187 128.739 73.3166 128.369 72.9465C127.999 72.5764 127.497 72.3684 126.974 72.3684C126.45 72.3684 125.948 72.5764 125.578 72.9465C125.208 73.3166 125 73.8187 125 74.3421C125 74.8656 125.208 75.3676 125.578 75.7377C125.948 76.1078 126.45 76.3158 126.974 76.3158ZM190.132 76.3158C190.655 76.3158 191.157 76.1078 191.527 75.7377C191.897 75.3676 192.105 74.8656 192.105 74.3421C192.105 73.8187 191.897 73.3166 191.527 72.9465C191.157 72.5764 190.655 72.3684 190.132 72.3684C189.608 72.3684 189.106 72.5764 188.736 72.9465C188.366 73.3166 188.158 73.8187 188.158 74.3421C188.158 74.8656 188.366 75.3676 188.736 75.7377C189.106 76.1078 189.608 76.3158 190.132 76.3158ZM179.605 34.2105C180.129 34.2105 180.631 34.0026 181.001 33.6324C181.371 33.2623 181.579 32.7603 181.579 32.2368C181.579 31.7134 181.371 31.2114 181.001 30.8412C180.631 30.4711 180.129 30.2632 179.605 30.2632C179.082 30.2632 178.58 30.4711 178.21 30.8412C177.84 31.2114 177.632 31.7134 177.632 32.2368C177.632 32.7603 177.84 33.2623 178.21 33.6324C178.58 34.0026 179.082 34.2105 179.605 34.2105ZM190.132 23.6842C190.655 23.6842 191.157 23.4763 191.527 23.1061C191.897 22.736 192.105 22.234 192.105 21.7105C192.105 21.1871 191.897 20.6851 191.527 20.3149C191.157 19.9448 190.655 19.7368 190.132 19.7368C189.608 19.7368 189.106 19.9448 188.736 20.3149C188.366 20.6851 188.158 21.1871 188.158 21.7105C188.158 22.234 188.366 22.736 188.736 23.1061C189.106 23.4763 189.608 23.6842 190.132 23.6842ZM169.079 23.6842C169.602 23.6842 170.104 23.4763 170.475 23.1061C170.845 22.736 171.053 22.234 171.053 21.7105C171.053 21.1871 170.845 20.6851 170.475 20.3149C170.104 19.9448 169.602 19.7368 169.079 19.7368C168.555 19.7368 168.053 19.9448 167.683 20.3149C167.313 20.6851 167.105 21.1871 167.105 21.7105C167.105 22.234 167.313 22.736 167.683 23.1061C168.053 23.4763 168.555 23.6842 169.079 23.6842ZM169.079 13.1579C169.602 13.1579 170.104 12.95 170.475 12.5798C170.845 12.2097 171.053 11.7077 171.053 11.1842C171.053 10.6608 170.845 10.1587 170.475 9.7886C170.104 9.41847 169.602 9.21053 169.079 9.21053C168.555 9.21053 168.053 9.41847 167.683 9.7886C167.313 10.1587 167.105 10.6608 167.105 11.1842C167.105 11.7077 167.313 12.2097 167.683 12.5798C168.053 12.95 168.555 13.1579 169.079 13.1579ZM158.553 13.1579C159.076 13.1579 159.578 12.95 159.948 12.5798C160.318 12.2097 160.526 11.7077 160.526 11.1842C160.526 10.6608 160.318 10.1587 159.948 9.7886C159.578 9.41847 159.076 9.21053 158.553 9.21053C158.029 9.21053 157.527 9.41847 157.157 9.7886C156.787 10.1587 156.579 10.6608 156.579 11.1842C156.579 11.7077 156.787 12.2097 157.157 12.5798C157.527 12.95 158.029 13.1579 158.553 13.1579ZM148.026 13.1579C148.55 13.1579 149.052 12.95 149.422 12.5798C149.792 12.2097 150 11.7077 150 11.1842C150 10.6608 149.792 10.1587 149.422 9.7886C149.052 9.41847 148.55 9.21053 148.026 9.21053C147.503 9.21053 147.001 9.41847 146.631 9.7886C146.261 10.1587 146.053 10.6608 146.053 11.1842C146.053 11.7077 146.261 12.2097 146.631 12.5798C147.001 12.95 147.503 13.1579 148.026 13.1579ZM137.5 13.1579C138.023 13.1579 138.525 12.95 138.896 12.5798C139.266 12.2097 139.474 11.7077 139.474 11.1842C139.474 10.6608 139.266 10.1587 138.896 9.7886C138.525 9.41847 138.023 9.21053 137.5 9.21053C136.977 9.21053 136.475 9.41847 136.104 9.7886C135.734 10.1587 135.526 10.6608 135.526 11.1842C135.526 11.7077 135.734 12.2097 136.104 12.5798C136.475 12.95 136.977 13.1579 137.5 13.1579V13.1579ZM32.2368 23.6842C32.7603 23.6842 33.2623 23.4763 33.6324 23.1061C34.0026 22.736 34.2105 22.234 34.2105 21.7105C34.2105 21.1871 34.0026 20.6851 33.6324 20.3149C33.2623 19.9448 32.7603 19.7368 32.2368 19.7368C31.7134 19.7368 31.2114 19.9448 30.8412 20.3149C30.4711 20.6851 30.2632 21.1871 30.2632 21.7105C30.2632 22.234 30.4711 22.736 30.8412 23.1061C31.2114 23.4763 31.7134 23.6842 32.2368 23.6842ZM11.1842 23.6842C11.7077 23.6842 12.2097 23.4763 12.5798 23.1061C12.95 22.736 13.1579 22.234 13.1579 21.7105C13.1579 21.1871 12.95 20.6851 12.5798 20.3149C12.2097 19.9448 11.7077 19.7368 11.1842 19.7368C10.6608 19.7368 10.1587 19.9448 9.7886 20.3149C9.41847 20.6851 9.21053 21.1871 9.21053 21.7105C9.21053 22.234 9.41847 22.736 9.7886 23.1061C10.1587 23.4763 10.6608 23.6842 11.1842 23.6842ZM32.2368 34.2105C32.7603 34.2105 33.2623 34.0026 33.6324 33.6324C34.0026 33.2623 34.2105 32.7603 34.2105 32.2368C34.2105 31.7134 34.0026 31.2114 33.6324 30.8412C33.2623 30.4711 32.7603 30.2632 32.2368 30.2632C31.7134 30.2632 31.2114 30.4711 30.8412 30.8412C30.4711 31.2114 30.2632 31.7134 30.2632 32.2368C30.2632 32.7603 30.4711 33.2623 30.8412 33.6324C31.2114 34.0026 31.7134 34.2105 32.2368 34.2105ZM21.7105 44.7368C22.234 44.7368 22.736 44.5289 23.1061 44.1588C23.4763 43.7886 23.6842 43.2866 23.6842 42.7632C23.6842 42.2397 23.4763 41.7377 23.1061 41.3676C22.736 40.9974 22.234 40.7895 21.7105 40.7895C21.1871 40.7895 20.6851 40.9974 20.3149 41.3676C19.9448 41.7377 19.7368 42.2397 19.7368 42.7632C19.7368 43.2866 19.9448 43.7886 20.3149 44.1588C20.6851 44.5289 21.1871 44.7368 21.7105 44.7368ZM32.2368 13.1579C32.7603 13.1579 33.2623 12.95 33.6324 12.5798C34.0026 12.2097 34.2105 11.7077 34.2105 11.1842C34.2105 10.6608 34.0026 10.1587 33.6324 9.7886C33.2623 9.41847 32.7603 9.21053 32.2368 9.21053C31.7134 9.21053 31.2114 9.41847 30.8412 9.7886C30.4711 10.1587 30.2632 10.6608 30.2632 11.1842C30.2632 11.7077 30.4711 12.2097 30.8412 12.5798C31.2114 12.95 31.7134 13.1579 32.2368 13.1579ZM32.2368 171.053C32.7603 171.053 33.2623 170.845 33.6324 170.475C34.0026 170.104 34.2105 169.602 34.2105 169.079C34.2105 168.555 34.0026 168.053 33.6324 167.683C33.2623 167.313 32.7603 167.105 32.2368 167.105C31.7134 167.105 31.2114 167.313 30.8412 167.683C30.4711 168.053 30.2632 168.555 30.2632 169.079C30.2632 169.602 30.4711 170.104 30.8412 170.475C31.2114 170.845 31.7134 171.053 32.2368 171.053ZM42.7632 192.105C43.2866 192.105 43.7886 191.897 44.1588 191.527C44.5289 191.157 44.7368 190.655 44.7368 190.132C44.7368 189.608 44.5289 189.106 44.1588 188.736C43.7886 188.366 43.2866 188.158 42.7632 188.158C42.2397 188.158 41.7377 188.366 41.3676 188.736C40.9974 189.106 40.7895 189.608 40.7895 190.132C40.7895 190.655 40.9974 191.157 41.3676 191.527C41.7377 191.897 42.2397 192.105 42.7632 192.105ZM32.2368 150C32.7603 150 33.2623 149.792 33.6324 149.422C34.0026 149.052 34.2105 148.55 34.2105 148.026C34.2105 147.503 34.0026 147.001 33.6324 146.631C33.2623 146.261 32.7603 146.053 32.2368 146.053C31.7134 146.053 31.2114 146.261 30.8412 146.631C30.4711 147.001 30.2632 147.503 30.2632 148.026C30.2632 148.55 30.4711 149.052 30.8412 149.422C31.2114 149.792 31.7134 150 32.2368 150ZM32.2368 160.526C32.7603 160.526 33.2623 160.318 33.6324 159.948C34.0026 159.578 34.2105 159.076 34.2105 158.553C34.2105 158.029 34.0026 157.527 33.6324 157.157C33.2623 156.787 32.7603 156.579 32.2368 156.579C31.7134 156.579 31.2114 156.787 30.8412 157.157C30.4711 157.527 30.2632 158.029 30.2632 158.553C30.2632 159.076 30.4711 159.578 30.8412 159.948C31.2114 160.318 31.7134 160.526 32.2368 160.526ZM21.7105 139.474C22.234 139.474 22.736 139.266 23.1061 138.896C23.4763 138.525 23.6842 138.023 23.6842 137.5C23.6842 136.977 23.4763 136.475 23.1061 136.104C22.736 135.734 22.234 135.526 21.7105 135.526C21.1871 135.526 20.6851 135.734 20.3149 136.104C19.9448 136.475 19.7368 136.977 19.7368 137.5C19.7368 138.023 19.9448 138.525 20.3149 138.896C20.6851 139.266 21.1871 139.474 21.7105 139.474V139.474ZM74.3421 23.6842C74.8656 23.6842 75.3676 23.4763 75.7377 23.1061C76.1078 22.736 76.3158 22.234 76.3158 21.7105C76.3158 21.1871 76.1078 20.6851 75.7377 20.3149C75.3676 19.9448 74.8656 19.7368 74.3421 19.7368C73.8187 19.7368 73.3166 19.9448 72.9465 20.3149C72.5764 20.6851 72.3684 21.1871 72.3684 21.7105C72.3684 22.234 72.5764 22.736 72.9465 23.1061C73.3166 23.4763 73.8187 23.6842 74.3421 23.6842V23.6842ZM84.8684 23.6842C85.3919 23.6842 85.8939 23.4763 86.264 23.1061C86.6342 22.736 86.8421 22.234 86.8421 21.7105C86.8421 21.1871 86.6342 20.6851 86.264 20.3149C85.8939 19.9448 85.3919 19.7368 84.8684 19.7368C84.345 19.7368 83.843 19.9448 83.4728 20.3149C83.1027 20.6851 82.8947 21.1871 82.8947 21.7105C82.8947 22.234 83.1027 22.736 83.4728 23.1061C83.843 23.4763 84.345 23.6842 84.8684 23.6842ZM74.3421 13.1579C74.8656 13.1579 75.3676 12.95 75.7377 12.5798C76.1078 12.2097 76.3158 11.7077 76.3158 11.1842C76.3158 10.6608 76.1078 10.1587 75.7377 9.7886C75.3676 9.41847 74.8656 9.21053 74.3421 9.21053C73.8187 9.21053 73.3166 9.41847 72.9465 9.7886C72.5764 10.1587 72.3684 10.6608 72.3684 11.1842C72.3684 11.7077 72.5764 12.2097 72.9465 12.5798C73.3166 12.95 73.8187 13.1579 74.3421 13.1579V13.1579ZM95.3947 44.7368C95.9182 44.7368 96.4202 44.5289 96.7903 44.1588C97.1605 43.7886 97.3684 43.2866 97.3684 42.7632C97.3684 42.2397 97.1605 41.7377 96.7903 41.3676C96.4202 40.9974 95.9182 40.7895 95.3947 40.7895C94.8713 40.7895 94.3693 40.9974 93.9991 41.3676C93.629 41.7377 93.4211 42.2397 93.4211 42.7632C93.4211 43.2866 93.629 43.7886 93.9991 44.1588C94.3693 44.5289 94.8713 44.7368 95.3947 44.7368ZM105.921 34.2105C106.445 34.2105 106.947 34.0026 107.317 33.6324C107.687 33.2623 107.895 32.7603 107.895 32.2368C107.895 31.7134 107.687 31.2114 107.317 30.8412C106.947 30.4711 106.445 30.2632 105.921 30.2632C105.398 30.2632 104.896 30.4711 104.525 30.8412C104.155 31.2114 103.947 31.7134 103.947 32.2368C103.947 32.7603 104.155 33.2623 104.525 33.6324C104.896 34.0026 105.398 34.2105 105.921 34.2105ZM105.921 13.1579C106.445 13.1579 106.947 12.95 107.317 12.5798C107.687 12.2097 107.895 11.7077 107.895 11.1842C107.895 10.6608 107.687 10.1587 107.317 9.7886C106.947 9.41847 106.445 9.21053 105.921 9.21053C105.398 9.21053 104.896 9.41847 104.525 9.7886C104.155 10.1587 103.947 10.6608 103.947 11.1842C103.947 11.7077 104.155 12.2097 104.525 12.5798C104.896 12.95 105.398 13.1579 105.921 13.1579ZM179.605 128.947C180.129 128.947 180.631 128.739 181.001 128.369C181.371 127.999 181.579 127.497 181.579 126.974C181.579 126.45 181.371 125.948 181.001 125.578C180.631 125.208 180.129 125 179.605 125C179.082 125 178.58 125.208 178.21 125.578C177.84 125.948 177.632 126.45 177.632 126.974C177.632 127.497 177.84 127.999 178.21 128.369C178.58 128.739 179.082 128.947 179.605 128.947ZM169.079 139.474C169.602 139.474 170.104 139.266 170.475 138.896C170.845 138.525 171.053 138.023 171.053 137.5C171.053 136.977 170.845 136.475 170.475 136.104C170.104 135.734 169.602 135.526 169.079 135.526C168.555 135.526 168.053 135.734 167.683 136.104C167.313 136.475 167.105 136.977 167.105 137.5C167.105 138.023 167.313 138.525 167.683 138.896C168.053 139.266 168.555 139.474 169.079 139.474V139.474ZM169.079 150C169.602 150 170.104 149.792 170.475 149.422C170.845 149.052 171.053 148.55 171.053 148.026C171.053 147.503 170.845 147.001 170.475 146.631C170.104 146.261 169.602 146.053 169.079 146.053C168.555 146.053 168.053 146.261 167.683 146.631C167.313 147.001 167.105 147.503 167.105 148.026C167.105 148.55 167.313 149.052 167.683 149.422C168.053 149.792 168.555 150 169.079 150ZM169.079 160.526C169.602 160.526 170.104 160.318 170.475 159.948C170.845 159.578 171.053 159.076 171.053 158.553C171.053 158.029 170.845 157.527 170.475 157.157C170.104 156.787 169.602 156.579 169.079 156.579C168.555 156.579 168.053 156.787 167.683 157.157C167.313 157.527 167.105 158.029 167.105 158.553C167.105 159.076 167.313 159.578 167.683 159.948C168.053 160.318 168.555 160.526 169.079 160.526ZM11.1842 118.421C11.7077 118.421 12.2097 118.213 12.5798 117.843C12.95 117.473 13.1579 116.971 13.1579 116.447C13.1579 115.924 12.95 115.422 12.5798 115.052C12.2097 114.682 11.7077 114.474 11.1842 114.474C10.6608 114.474 10.1587 114.682 9.7886 115.052C9.41847 115.422 9.21053 115.924 9.21053 116.447C9.21053 116.971 9.41847 117.473 9.7886 117.843C10.1587 118.213 10.6608 118.421 11.1842 118.421ZM11.1842 128.947C11.7077 128.947 12.2097 128.739 12.5798 128.369C12.95 127.999 13.1579 127.497 13.1579 126.974C13.1579 126.45 12.95 125.948 12.5798 125.578C12.2097 125.208 11.7077 125 11.1842 125C10.6608 125 10.1587 125.208 9.7886 125.578C9.41847 125.948 9.21053 126.45 9.21053 126.974C9.21053 127.497 9.41847 127.999 9.7886 128.369C10.1587 128.739 10.6608 128.947 11.1842 128.947ZM11.1842 107.895C11.7077 107.895 12.2097 107.687 12.5798 107.317C12.95 106.947 13.1579 106.445 13.1579 105.921C13.1579 105.398 12.95 104.896 12.5798 104.525C12.2097 104.155 11.7077 103.947 11.1842 103.947C10.6608 103.947 10.1587 104.155 9.7886 104.525C9.41847 104.896 9.21053 105.398 9.21053 105.921C9.21053 106.445 9.41847 106.947 9.7886 107.317C10.1587 107.687 10.6608 107.895 11.1842 107.895ZM21.7105 107.895C22.234 107.895 22.736 107.687 23.1061 107.317C23.4763 106.947 23.6842 106.445 23.6842 105.921C23.6842 105.398 23.4763 104.896 23.1061 104.525C22.736 104.155 22.234 103.947 21.7105 103.947C21.1871 103.947 20.6851 104.155 20.3149 104.525C19.9448 104.896 19.7368 105.398 19.7368 105.921C19.7368 106.445 19.9448 106.947 20.3149 107.317C20.6851 107.687 21.1871 107.895 21.7105 107.895ZM11.1842 55.2632C11.7077 55.2632 12.2097 55.0552 12.5798 54.6851C12.95 54.3149 13.1579 53.8129 13.1579 53.2895C13.1579 52.766 12.95 52.264 12.5798 51.8939C12.2097 51.5237 11.7077 51.3158 11.1842 51.3158C10.6608 51.3158 10.1587 51.5237 9.7886 51.8939C9.41847 52.264 9.21053 52.766 9.21053 53.2895C9.21053 53.8129 9.41847 54.3149 9.7886 54.6851C10.1587 55.0552 10.6608 55.2632 11.1842 55.2632ZM32.2368 97.3684C32.7603 97.3684 33.2623 97.1605 33.6324 96.7903C34.0026 96.4202 34.2105 95.9182 34.2105 95.3947C34.2105 94.8713 34.0026 94.3693 33.6324 93.9991C33.2623 93.629 32.7603 93.4211 32.2368 93.4211C31.7134 93.4211 31.2114 93.629 30.8412 93.9991C30.4711 94.3693 30.2632 94.8713 30.2632 95.3947C30.2632 95.9182 30.4711 96.4202 30.8412 96.7903C31.2114 97.1605 31.7134 97.3684 32.2368 97.3684ZM42.7632 86.8421C43.2866 86.8421 43.7886 86.6342 44.1588 86.264C44.5289 85.8939 44.7368 85.3919 44.7368 84.8684C44.7368 84.345 44.5289 83.843 44.1588 83.4728C43.7886 83.1027 43.2866 82.8947 42.7632 82.8947C42.2397 82.8947 41.7377 83.1027 41.3676 83.4728C40.9974 83.843 40.7895 84.345 40.7895 84.8684C40.7895 85.3919 40.9974 85.8939 41.3676 86.264C41.7377 86.6342 42.2397 86.8421 42.7632 86.8421Z" fill="#DADADA"/>
</g>
<defs>
<clipPath id="clip0">
<rect width="200" height="200" fill="white"/>
</clipPath>
</defs>
</svg>
